<svg width="281" height="281" viewBox="0 0 281 281" xmlns="http://www.w3.org/2000/svg" fill="none"><g clip-path="url(#a)" fill="#919EAB"><path d="M252.086 74l8.65-4.995c.755 1.277 1.462 2.474 2.207 3.728-.264.23-.467.476-.726.622-2.3 1.333-4.604 2.662-6.917 3.972-.91.514-1.037.466-1.56-.424-.533-.91-1.04-1.828-1.654-2.903zM251.85 207.933c.778-1.338 1.46-2.502 2.187-3.755.55.268 1.008.452 1.428.697 2.073 1.206 4.137 2.422 6.2 3.643 1.014.598 1.037.702.472 1.724-.34.618-.674 1.235-1.04 1.833-.176.288-.42.533-.694.872l-8.557-5.014h.004zM212.15 261.21c-1.263.73-2.436 1.408-3.76 2.17-1.645-2.855-3.247-5.64-4.906-8.528.293-.23.538-.457.816-.632.655-.41 1.324-.796 1.988-1.187.72-.43.96-.41 1.442.306.476.71.876 1.474 1.305 2.214.933 1.62 1.866 3.242 2.795 4.868.113.198.174.424.32.787zM208.79 18.52c1.377.81 2.57 1.507 3.813 2.238l-5 8.49c-1.286-.73-2.483-1.413-3.812-2.167 1.603-2.93 3.22-5.695 5.005-8.56h-.004zM280.265 138.947c.396 1.343.165 2.724.18 4.062-1.26.376-8.28.34-9.896-.034v-3.934c.748-.255 7.99-.344 9.715-.095zM76.97 254.875c-1.698 2.795-3.097 5.575-4.902 8.214-1.38-.74-2.68-1.325-3.732-2.353 1.414-2.422 2.8-4.806 4.19-7.186.57-.974.62-.983 1.6-.413.637.367 1.292.707 1.924 1.08.292.168.55.395.92.663v-.005zM138.523 10.353V.868h4.166c.065.438.183.88.183 1.329.02 2.39.014 4.782 0 7.17-.005 1.11-.132 1.27-1.207 1.236-1.04-.028-2.082-.165-3.143-.255v.005zM77.326 26.63c-1.13.687-2.18 1.342-3.25 1.97-.345.2-.712.107-.915-.25-1.455-2.588-2.897-5.18-4.34-7.776-.032-.057.01-.15.02-.24 1.16-.665 2.323-1.34 3.638-2.093 1.588 2.753 3.185 5.51 4.853 8.394l-.004-.005zM28.632 73.515c-.844 1.366-1.395 2.615-2.333 3.732-2.767-1.607-5.552-2.973-8.134-4.896l2.168-3.722c2.813 1.66 5.5 3.238 8.298 4.887zM19.97 212.41l-2.068-3.7c2.72-1.554 5.424-3.105 8.138-4.655 1.07.97 1.494 2.22 2.163 3.3.18.286.047.57-.297.767-2.37 1.362-4.726 2.747-7.1 4.11-.218.126-.515.112-.83.178h-.005zM9.877 142.566c-.83.316-8.105.316-9.377-.028v-4.09h9.165c.344.83.438 2.624.212 4.123v-.004zM138.07 271.217h4.153c.07.518.183 1.01.188 1.494.02 2.315.015 4.623 0 6.937-.004 1.155-.098 1.25-1.3 1.258-1.008.01-2.035.113-3.044-.34v-9.353l.005.005zM236.404 228.63c.278-.322.472-.562.688-.78.16-.16.354-.29.533-.437 2.148 1.927 4.255 3.826 6.375 5.71.976.868.938 1.31-.264 2.155-2.488-2.064-4.84-4.33-7.327-6.644l-.006-.005zM237.742 54.393c-.316-.358-.594-.68-.947-1.084.23-.28.415-.567.655-.788 1.88-1.692 3.76-3.38 5.66-5.056.965-.853.993-.84 1.912.23-.443.957-5.706 5.834-7.28 6.697zM228.214 44.68c-.09-.056-.23-.12-.335-.22-.28-.274-.538-.56-.86-.89.166-.194.303-.364.45-.524 1.832-2.012 3.66-4.03 5.512-6.027.59-.637.83-.59 1.428-.025.424.4.363.745.028 1.108-2.012 2.186-4.028 4.363-6.05 6.54-.024.024-.075.02-.174.043v-.005zM245.418 63.652c1.23-.88 2.483-1.772 3.727-2.672 1.126-.815 2.243-1.644 3.374-2.46.65-.466.97-.39 1.455.236.27.35.236.65-.052.93-.22.215-.476.4-.725.583l-5.683 4.108c-1.23.886-1.428.825-2.092-.73l-.005.004zM222.14 27.166c.217.11.396.175.556.278.89.58.938.764.293 1.654-1.44 1.994-2.895 3.973-4.35 5.952-.81 1.102-1.066 1.098-2.14-.123 1.838-2.53 3.7-5.094 5.636-7.765l.004.004zM267.877 83.33c1.126 1.187 1.084 1.513-.363 2.168-2.1.947-4.222 1.865-6.333 2.794-.037.014-.07.033-.107.047-1.273.498-1.536.357-1.956-1.137l8.755-3.878.005.005zM221.918 254.668c-.26-.292-.504-.527-.707-.8-1.488-2.06-2.967-4.124-4.456-6.183-.575-.792-.92-.933.282-1.7l.406-.256c1.022 1.36 2.05 2.718 3.067 4.085.673.91 1.347 1.82 1.988 2.752.63.91 1.154 1.197-.575 2.097l-.005.004zM273.173 96.99c.142.15.33.302.443.496.41.72.307 1.055-.47 1.338-1.363.49-2.734.942-4.11 1.395-1.074.352-2.163.668-3.242 1.012-1.272.41-1.725.042-1.644-1.334 2.963-.952 5.97-1.922 9.023-2.903v-.004zM254.032 222.512l-.42.858c-.25.514-.65.533-1.074.27-.462-.29-.89-.628-1.324-.953-1.805-1.357-3.614-2.71-5.405-4.08-.628-.482-.642-.684-.246-1.217.396-.532.565-.56 1.253-.07 1.928 1.37 3.836 2.756 5.754 4.137.44.316.877.636 1.462 1.06v-.005zM196.99 12.582c.477.278.836.49 1.307.763-1.06 2.978-2.535 5.763-3.756 8.624-.748.343-1.13-.166-1.667-.62.65-1.45 1.277-2.95 1.984-4.41.702-1.44 1.12-3.04 2.134-4.358zM234.487 244.598c-.15.17-.222.264-.31.34-.774.63-.87.64-1.528-.07-.98-1.06-1.933-2.15-2.89-3.224-.853-.962-1.7-1.928-2.554-2.89-.414-.465-.245-.8.16-1.182.41-.386.726-.367 1.084.03 1.932 2.138 3.87 4.273 5.79 6.42.124.138.152.35.247.586v-.01zM42.697 227.295c.448.476.81.863 1.254 1.338-2.355 2.126-4.63 4.175-7.016 6.324-.41-.358-.8-.702-1.295-1.14 2.176-2.37 4.7-4.236 7.057-6.526v.005zM267.682 113.05c1.05-.203 2.116-.396 3.176-.618 1.14-.24 2.272-.508 3.407-.763.792-.18 1.584-.373 2.38-.533.584-.118.726.32.857.744.15.487.043.863-.475 1.02-.523.154-1.056.296-1.588.404-2.183.448-4.37.886-6.556 1.315-.97.187-1.235-.16-1.202-1.57zM62.822 245.786c1.847.9 1.42 1.116.632 2.214-1.386 1.942-2.823 3.85-4.265 5.754-.552.726-.872.702-1.513.1-.33-.317-.34-.642-.118-.94 1.742-2.388 3.51-4.763 5.262-7.128zM166.928 12.93c.57-2.638 1.112-5.164 1.658-7.69.015-.075.024-.155.038-.23.278-1.536.457-1.607 1.98-.674l-1.97 9.02c-.797.404-1.207-.08-1.706-.425zM180.107 16.63c.99-3.11 1.876-6.197 3.13-9.27.54.265.942.458 1.427.694-.283.95-.537 1.884-.834 2.798-.565 1.744-1.13 3.492-1.753 5.212-.466 1.29-.51 1.277-1.97.56v.006zM267.655 168.907c0-.4-.03-.74.01-1.074.042-.377.32-.537.673-.47 1.37.258 2.742.53 4.11.82 1.252.258 2.492.578 3.75.804 1.315.23 1.475.48.92 1.89-1.618.023-3.15-.613-4.737-.91-1.563-.292-3.104-.692-4.72-1.06h-.005zM279.822 126.993c-1.235.584-8.124 1.272-9.877.975-.047-.372-.1-.777-.16-1.286 1.075-.18 2.06-.373 3.05-.5 1.47-.184 2.944-.32 4.42-.47.385-.04.78-.058 1.168-.072 1.23-.033 1.248-.014 1.4 1.348v.005zM273.84 183.623c-.168.472-.244.688-.33.905-.055.142-.13.278-.262.542-.778-.212-1.565-.386-2.324-.65-2.03-.702-4.052-1.437-6.073-2.163-1.027-.368-1.036-.39-.636-1.385.057-.142.137-.274.24-.472 3.092 1.127 6.268 1.947 9.387 3.223zM154.06 280.085c-.443-3.237-.75-6.418-1.037-9.697.604-.038 1.014-.06 1.518-.09.19 1.032.41 1.98.524 2.94.212 1.834.372 3.667.528 5.504.117 1.405.08 1.42-1.527 1.34l-.005.003zM110.307 277.25c.65-3.003 1.286-5.93 1.946-8.968.523.06 1 .113 1.597.184-.047.527-.047.95-.132 1.357-.485 2.294-.985 4.59-1.49 6.88-.305 1.394-.682 1.512-1.92.55v-.004zM82.506 268.21c1.305-2.91 2.573-5.753 3.854-8.613.49.16.886.292 1.438.47-.085.458-.09.93-.264 1.325-.985 2.21-1.998 4.406-3.026 6.597-.527 1.126-.588 1.126-1.592.466-.094-.06-.198-.118-.41-.245zM64.656 34.607l-1.37 1.084c-2.01-2.52-3.776-5.117-5.65-7.77.314-.268.57-.594.894-.716.22-.085.67.028.806.212 1.772 2.356 3.51 4.74 5.315 7.195l.006-.003zM125.787 270.284c.532.024.876.043 1.343.066.075.33.245.665.217.98-.255 2.648-.538 5.297-.83 7.945-.028.264-.17.514-.25.744-1.206.174-1.545-.024-1.446-1 .284-2.88.632-5.753.967-8.73v-.006zM20.617 193c.26.4.523.81.853 1.325-.433.278-.763.546-1.13.716-2.235 1.02-4.477 2.018-6.72 3.007-.712.316-.97.193-1.268-.51-.245-.583-.094-.927.523-1.196 2.545-1.097 5.094-2.194 7.742-3.34zM34.2 216.726c.35.4.627.72.985 1.13-.24.27-.428.562-.692.755-2.262 1.67-4.543 3.323-6.838 4.996-.174-.15-.3-.236-.4-.344-.764-.853-.745-1.075.155-1.725 2.012-1.456 4.02-2.917 6.032-4.373.217-.155.466-.273.758-.438zM192.566 260.064c.505-.175.896-.31 1.405-.49 1.278 2.794 2.545 5.56 3.817 8.326.19.41.07.68-.287.877-.613.334-1.15.24-1.418-.297-.363-.735-.665-1.5-.995-2.248-.754-1.715-1.517-3.43-2.26-5.155-.133-.306-.17-.65-.26-1.013zM46.95 245.197c-.343-.387-.62-.702-.936-1.065.264-.358.46-.693.716-.97 1.64-1.815 3.29-3.625 4.948-5.425.556-.603.702-.608 1.22-.17.584.5.674.73.212 1.25-1.79 2.012-3.62 3.99-5.442 5.97-.146.16-.396.23-.712.41h-.005zM37.128 46.406c.622.51 1.296 1.022 1.923 1.583 1.42 1.267 2.818 2.558 4.227 3.835.943.857.933 1.055-.174 2.068-.26-.155-.584-.287-.83-.51-1.847-1.67-3.69-3.344-5.503-5.05-.905-.853-.858-1.027.358-1.927zM127.6 11.15h-1.338c-.108-.613-.26-1.25-.33-1.89-.235-2.144-.457-4.288-.65-6.437-.113-1.277-.033-1.338 1.324-1.41.632 1.97 1.31 8.337.995 9.74v-.004zM99.478 16.832c-.933-2.84-1.847-5.63-2.776-8.415-.17-.514.118-.75.5-.9.367-.146.8-.245 1.017.235.3.68.593 1.367.83 2.07.597 1.78 1.163 3.575 1.738 5.366.42 1.31.296 1.48-1.306 1.64l-.004.005zM35.441 63.238c-.16.292-.262.537-.413.754-.41.57-.674.622-1.254.207-1.267-.906-2.52-1.825-3.774-2.753-1.028-.763-2.04-1.546-3.158-2.394.104-.24.184-.527.344-.763.42-.622.57-.64 1.2-.203 1.02.707 2.037 1.414 3.036 2.144 1.333.98 2.648 1.985 4.015 3.008h.005zM99.054 264.686c1.41-.066 1.762.34 1.347 1.612-.767 2.374-1.563 4.735-2.364 7.096-.27.796-.608.905-1.305.476-.193-.118-.362-.283-.537-.424.962-2.945 1.913-5.857 2.86-8.765v.006zM155.082 11.314c-.612-.056-1.06-.103-1.48-.14-.192-1.556.642-8.695 1.14-9.77.208.053.43.1.642.17.184.062.353.146.67.283-.076 3.115-.557 6.192-.967 9.462l-.005-.006zM166.593 268.45c.565-.098.942-.164 1.446-.248.96 3.105 1.52 6.262 2.115 9.49-.39.07-.613.104-.834.146-.63.123-.94-.15-1.064-.773-.33-1.69-.688-3.374-1.037-5.06-.15-.73-.316-1.457-.453-2.187-.075-.415-.113-.834-.18-1.37l.006.003zM181.352 264.69l2.723 8.186c.245.735.18 1-.3 1.15-.755.24-1.18.08-1.4-.6-.67-2.044-1.315-4.098-1.97-6.148-.118-.372-.25-.74-.368-1.112-.377-1.192-.108-1.522 1.315-1.475zM259.112 194.706c0-.263-.047-.47.01-.645.226-.71.518-.847 1.225-.546 1.564.674 3.12 1.38 4.68 2.07.885.39 1.78.767 2.657 1.186.325.156.607.406.928.627-.255.495-.448.867-.698 1.343-2.987-1.216-5.88-2.55-8.802-4.038v.004zM47.528 36.03c2.12 2.337 4.208 4.632 6.36 7.002-.206.278-.352.547-.564.745-.575.523-.726.527-1.24-.038-1.667-1.853-3.32-3.72-4.97-5.585-.74-.84-1.07-1.122.414-2.12v-.005zM279.614 154.93c.118 1.476.01 1.603-1.234 1.48-2.144-.21-4.288-.414-6.428-.664-.725-.085-1.432-.315-2.233-.494.08-.476.145-.882.234-1.428 3.3.273 6.503.57 9.66 1.112v-.005zM112.276 3.72c.914 3.047 1.466 6.14 2.036 9.244-.278.1-.42.184-.566.198-.306.033-.617.033-1.027.052-.16-.613-.34-1.197-.472-1.79-.485-2.253-.957-4.51-1.418-6.768-.16-.772.066-.933 1.442-.937h.004zM86.746 21.747c-1.273-2.837-2.535-5.64-3.812-8.487.16-.14.287-.287.447-.386.703-.443 1.03-.372 1.4.363.392.763.745 1.546 1.1 2.332.687 1.536 1.36 3.076 2.034 4.617.476 1.084.424 1.178-.754 1.518-.07.02-.15.02-.414.047v-.005zM15.847 180.184c.26.527.443.904.64 1.31-.668.763-1.615.838-2.444 1.12-1.885.647-3.803 1.212-5.702 1.815-.687.216-.96.093-1.177-.538-.203-.603-.033-.96.608-1.16 2.187-.682 4.378-1.352 6.565-2.03.5-.156.994-.34 1.512-.514v-.004zM3.558 170.274c-.41-1.324-.25-1.527 1.102-1.758 1.306-.226 2.592-.537 3.888-.81.914-.194 1.828-.406 2.747-.566 1.107-.193 1.287-.037 1.517 1.174-.923.692-8.114 2.22-9.254 1.96zM3.9 110.694l8.747 1.885c.35.498.156 1.045-.075 1.733-.877-.17-1.753-.307-2.615-.505-1.866-.424-3.728-.88-5.59-1.314-.418-.1-.974-.104-1.007-.627-.033-.476.132-1.004.537-1.178l.004.004zM1.15 155.826l-.156-1.4c3.115-.343 6.168-.683 9.245-1.027.117.273.22.438.268.617.23.857.066 1.14-.844 1.248-1.635.203-3.274.36-4.91.523-.702.07-1.408.137-2.11.15-.49.01-.985-.07-1.494-.112zM7.643 96.53c3.03.998 5.92 1.954 8.93 2.95-.203.545-.392 1.064-.623 1.686-2.836-.985-5.55-1.932-8.27-2.865-.503-.174-.71-.456-.466-.965.132-.278.283-.542.42-.806h.01zM12.945 82.868c2.842 1.29 5.622 2.554 8.426 3.826 0 .18.03.335 0 .476-.207.948-.508 1.17-1.366.792-2.427-1.074-4.83-2.2-7.233-3.322-.4-.19-.597-.495-.296-.942.15-.222.27-.472.476-.83h-.005zM10.57 126.15c0 .353.004.54 0 .735-.025.824-.156.956-.98.87-2.183-.22-4.365-.437-6.542-.7-.65-.08-1.277-.312-2.007-.496.086-.486.152-.89.25-1.46 3.11.352 6.122.69 9.274 1.05h.005z"/></g><defs><clipPath id="a"><path fill="#fff" d="M.5.868h280v280.057H.5z"/></clipPath></defs></svg>